<?xml version="1.0" encoding="UTF-8"?>
<!DOCTYPE svg PUBLIC "-//W3C//DTD SVG 1.1//EN" "http://www.w3.org/Graphics/SVG/1.1/DTD/svg11.dtd">
<svg xmlns="http://www.w3.org/2000/svg" version="1.1" width="500px" height="500px" style="shape-rendering:geometricPrecision; text-rendering:geometricPrecision; image-rendering:optimizeQuality; fill-rule:evenodd; clip-rule:evenodd" xmlns:xlink="http://www.w3.org/1999/xlink">
<g><path style="opacity:1" fill="#4d91e2" d="M 351.5,21.5 C 351.831,47.3388 351.498,73.0054 350.5,98.5C 339.974,93.4044 329.307,88.5711 318.5,84C 291.05,82.0511 274.717,94.5511 269.5,121.5C 269.162,139.69 268.162,157.69 266.5,175.5C 238.451,168.467 214.618,175.467 195,196.5C 191.648,201.203 188.815,206.203 186.5,211.5C 185.596,212.209 185.263,213.209 185.5,214.5C 213.167,214.5 240.833,214.5 268.5,214.5C 268.5,234.833 268.5,255.167 268.5,275.5C 258.021,277.598 247.355,277.931 236.5,276.5C 234.343,275.593 232.01,274.927 229.5,274.5C 207.036,256.753 182.703,241.753 156.5,229.5C 149.552,216.386 145.386,202.386 144,187.5C 143.012,131.109 143.346,74.7753 145,18.5C 151.226,7.19242 160.726,3.02575 173.5,6C 189.306,12.2372 205.306,17.9038 221.5,23C 243.086,27.0719 264.42,26.0719 285.5,20C 297.756,15.1369 310.089,10.4702 322.5,6C 336.868,2.84527 346.535,8.01194 351.5,21.5 Z M 220.5,121.5 C 218.5,122.833 216.833,124.5 215.5,126.5C 198.514,134.38 185.681,130.047 177,113.5C 173.327,93.8485 181.327,82.1818 201,78.5C 219.388,81.2635 227.721,91.9301 226,110.5C 225.203,114.75 223.37,118.417 220.5,121.5 Z"/></g>
<g><path style="opacity:0.876" fill="#6aa3e6" d="M 351.5,21.5 C 352.829,47.3364 352.829,73.3364 351.5,99.5C 350.893,99.3764 350.56,99.0431 350.5,98.5C 351.498,73.0054 351.831,47.3388 351.5,21.5 Z"/></g>
<g><path style="opacity:1" fill="#4d91e2" d="M 329.5,364.5 C 329.027,363.094 328.027,362.427 326.5,362.5C 313.481,352.969 303.981,340.635 298,325.5C 294.729,317.083 292.396,308.416 291,299.5C 289.366,241.524 289.032,183.524 290,125.5C 291.026,122.761 292.526,120.428 294.5,118.5C 295.906,118.027 296.573,117.027 296.5,115.5C 302.431,109.91 309.431,108.077 317.5,110C 331.695,114.43 345.695,119.43 359.5,125C 382.5,132.333 405.5,132.333 428.5,125C 441.167,120.333 453.833,115.667 466.5,111C 481.485,106.357 491.985,111.19 498,125.5C 498.667,181.167 498.667,236.833 498,292.5C 489.087,352.399 454.253,382.065 393.5,381.5C 370.166,382.645 348.833,376.978 329.5,364.5 Z M 341.5,183.5 C 356.886,182.273 367.052,188.939 372,203.5C 373.177,224.99 363.01,235.157 341.5,234C 326.839,229.201 320.339,219.035 322,203.5C 325.351,193.65 331.851,186.983 341.5,183.5 Z M 435.5,183.5 C 450.886,182.273 461.052,188.939 466,203.5C 467.051,224.905 456.884,235.072 435.5,234C 417.822,227.67 411.988,215.504 418,197.5C 422.265,190.721 428.098,186.054 435.5,183.5 Z M 455.5,300.5 C 452.29,307.367 448.29,313.701 443.5,319.5C 441.167,321.167 439.167,323.167 437.5,325.5C 408.95,343.854 380.284,344.021 351.5,326C 343.064,318.913 336.73,310.413 332.5,300.5C 352.656,299.167 373.156,298.5 394,298.5C 414.844,298.5 435.344,299.167 455.5,300.5 Z"/></g>
<g><path style="opacity:0.757" fill="#b0cbf2" d="M 296.5,115.5 C 296.573,117.027 295.906,118.027 294.5,118.5C 294.427,116.973 295.094,115.973 296.5,115.5 Z"/></g>
<g><path style="opacity:0.773" fill="#a0c0ef" d="M 220.5,121.5 C 219.833,124.167 218.167,125.833 215.5,126.5C 216.833,124.5 218.5,122.833 220.5,121.5 Z"/></g>
<g><path style="opacity:0.402" fill="#b2cff2" d="M 269.5,121.5 C 269.5,139.833 269.5,158.167 269.5,176.5C 268.209,176.737 267.209,176.404 266.5,175.5C 268.162,157.69 269.162,139.69 269.5,121.5 Z"/></g>
<g><path style="opacity:0.241" fill="#c9ddf6" d="M 186.5,211.5 C 213.813,213.492 241.48,214.158 269.5,213.5C 269.831,234.34 269.497,255.007 268.5,275.5C 268.5,255.167 268.5,234.833 268.5,214.5C 240.833,214.5 213.167,214.5 185.5,214.5C 185.263,213.209 185.596,212.209 186.5,211.5 Z"/></g>
<g><path style="opacity:1" fill="#4d91e2" d="M 251.5,318.5 C 251.427,320.027 252.094,321.027 253.5,321.5C 254.906,321.973 255.573,322.973 255.5,324.5C 255.427,326.027 256.094,327.027 257.5,327.5C 277.585,360.861 279.752,395.528 264,431.5C 244.096,474.515 210.262,495.848 162.5,495.5C 126.272,494.613 92.9389,484.446 62.5,465C 44.9611,449.046 39.1278,429.546 45,406.5C 48.9303,398.542 51.7637,390.209 53.5,381.5C 52.0616,371.797 47.3949,363.963 39.5,358C 30.4298,351.936 21.0965,346.269 11.5,341C 6.5032,336.851 2.5032,332.017 -0.5,326.5C -0.5,312.167 -0.5,297.833 -0.5,283.5C 1.23146,279.705 3.23146,276.038 5.5,272.5C 6.90632,272.027 7.57298,271.027 7.5,269.5C 8.1237,267.246 9.45703,265.579 11.5,264.5C 14.0892,263.581 16.0892,261.914 17.5,259.5C 23.0631,254.04 29.3964,249.54 36.5,246C 81.2929,226.553 125.293,228.219 168.5,251C 194.862,265.024 218.695,282.524 240,303.5C 244.327,308.17 248.16,313.17 251.5,318.5 Z M 114.5,265.5 C 132.703,264.947 140.537,273.613 138,291.5C 132.609,302.28 124.109,306.113 112.5,303C 101.65,297.126 98.1495,288.293 102,276.5C 105.124,271.536 109.291,267.87 114.5,265.5 Z M 64.5,291.5 C 64.9321,292.71 65.5987,293.71 66.5,294.5C 68.2299,301.148 67.5632,307.481 64.5,313.5C 62.5,314.833 60.8333,316.5 59.5,318.5C 42.6859,325.094 32.3526,319.594 28.5,302C 32.7276,284.72 43.0609,279.387 59.5,286C 61.3734,287.704 63.0401,289.537 64.5,291.5 Z M 171.5,294.5 C 182.8,293.398 190.633,298.065 195,308.5C 196.64,324.522 189.473,332.688 173.5,333C 163.407,330.404 157.74,323.904 156.5,313.5C 157.516,303.837 162.516,297.504 171.5,294.5 Z M 235.5,381.5 C 233.167,383.167 231.167,385.167 229.5,387.5C 216.051,393.407 206.218,389.74 200,376.5C 198.016,364.3 202.85,356.134 214.5,352C 228.058,351.217 236.058,357.551 238.5,371C 237.812,374.619 236.812,378.119 235.5,381.5 Z M 93.5,398.5 C 113.147,397.648 122.647,406.981 122,426.5C 114.964,444.268 102.797,449.102 85.5,441C 73.0717,429.258 72.405,416.925 83.5,404C 86.7667,401.87 90.1,400.037 93.5,398.5 Z"/></g>
<g><path style="opacity:0.922" fill="#90b6ec" d="M 17.5,259.5 C 16.0892,261.914 14.0892,263.581 11.5,264.5C 12.9108,262.086 14.9108,260.419 17.5,259.5 Z"/></g>
<g><path style="opacity:0.573" fill="#abc8f1" d="M 7.5,269.5 C 7.57298,271.027 6.90632,272.027 5.5,272.5C 5.42702,270.973 6.09368,269.973 7.5,269.5 Z"/></g>
<g><path style="opacity:0.78" fill="#8fb8ec" d="M 229.5,274.5 C 232.01,274.927 234.343,275.593 236.5,276.5C 234.473,276.662 232.473,276.495 230.5,276C 229.944,275.617 229.611,275.117 229.5,274.5 Z"/></g>
<g><path style="opacity:0.925" fill="#aac6f0" d="M 64.5,291.5 C 66.0481,291.821 66.7148,292.821 66.5,294.5C 65.5987,293.71 64.9321,292.71 64.5,291.5 Z"/></g>
<g><path style="opacity:0.226" fill="#d0e2f7" d="M 455.5,300.5 C 435.344,299.167 414.844,298.5 394,298.5C 373.156,298.5 352.656,299.167 332.5,300.5C 331.596,299.791 331.263,298.791 331.5,297.5C 373.167,297.5 414.833,297.5 456.5,297.5C 456.737,298.791 456.404,299.791 455.5,300.5 Z"/></g>
<g><path style="opacity:0.8" fill="#9bbdee" d="M 64.5,313.5 C 63.8333,316.167 62.1667,317.833 59.5,318.5C 60.8333,316.5 62.5,314.833 64.5,313.5 Z"/></g>
<g><path style="opacity:0.545" fill="#abc8f1" d="M 251.5,318.5 C 252.906,318.973 253.573,319.973 253.5,321.5C 252.094,321.027 251.427,320.027 251.5,318.5 Z"/></g>
<g><path style="opacity:0.875" fill="#93b8ed" d="M 443.5,319.5 C 442.5,322.5 440.5,324.5 437.5,325.5C 439.167,323.167 441.167,321.167 443.5,319.5 Z"/></g>
<g><path style="opacity:0.494" fill="#aecbf1" d="M 255.5,324.5 C 256.906,324.973 257.573,325.973 257.5,327.5C 256.094,327.027 255.427,326.027 255.5,324.5 Z"/></g>
<g><path style="opacity:0.627" fill="#a5c4f0" d="M 326.5,362.5 C 328.027,362.427 329.027,363.094 329.5,364.5C 327.973,364.573 326.973,363.906 326.5,362.5 Z"/></g>
<g><path style="opacity:0.796" fill="#9bbdee" d="M 235.5,381.5 C 234.5,384.5 232.5,386.5 229.5,387.5C 231.167,385.167 233.167,383.167 235.5,381.5 Z"/></g>
</svg>
